REM DIRINDEX 1\8,1\2\11,1\3\12,1\3\14,1\5\15,1\5\16,1\6\17,1\6\18,1\4\19,1\4\20,1\4\21,1\4\22,1\7\23,1\7\24,1\7\25,1\2\9\26,1\2\9\27,1\2\10\28,1\2\10\29,1\2\10\30,1\2\10\31,1\2\10\32,1\3\13\33,1\3\13\34,1\3\13\35
REM DIRNAME folder01,folder02,folder03,folder04,folder05,folder06,folder07,folder08,folder09,folder10,folder11,folder12,folder13,folder14,folder15,folder16,folder17,folder18,folder19,folder20,folder21,folder22,folder23,folder24,folder25,folder26,folder27,folder28,folder29,folder30,folder31,folder32,folder33,folder34,folder35
TITLE ""
FILE "2-47 047_UNIT4_SET6.mp3" MP3
  TRACK 01 AUDIO
    TITLE "11:cjc123_5326"
    INDEX 01 00:00:00
  TRACK 02 AUDIO
    TITLE "0:"
    INDEX 01 00:02:67
  TRACK 03 AUDIO
    TITLE "28:cjc123_5327"
    INDEX 01 00:03:33
  TRACK 04 AUDIO
    TITLE "0:"
    INDEX 01 00:04:44
  TRACK 05 AUDIO
    TITLE "29:cjc123_5328"
    INDEX 01 00:04:64
  TRACK 06 AUDIO
    TITLE "0:"
    INDEX 01 00:05:71
  TRACK 07 AUDIO
    TITLE "30:cjc123_5329"
    INDEX 01 00:06:04
  TRACK 08 AUDIO
    TITLE "0:"
    INDEX 01 00:07:17
  TRACK 09 AUDIO
    TITLE "31:cjc123_5330"
    INDEX 01 00:07:66
  TRACK 10 AUDIO
    TITLE "0:"
    INDEX 01 00:12:63
  TRACK 11 AUDIO
    TITLE "32:cjc123_5331"
    INDEX 01 00:13:22
  TRACK 12 AUDIO
    TITLE "0:"
    INDEX 01 00:17:21
  TRACK 13 AUDIO
    TITLE "28:cjc123_5332"
    INDEX 01 00:17:69
  TRACK 14 AUDIO
    TITLE "0:"
    INDEX 01 00:18:70
  TRACK 15 AUDIO
    TITLE "29:cjc123_5333"
    INDEX 01 00:19:09
  TRACK 16 AUDIO
    TITLE "0:"
    INDEX 01 00:20:08
  TRACK 17 AUDIO
    TITLE "30:cjc123_5334"
    INDEX 01 00:20:18
  TRACK 18 AUDIO
    TITLE "0:"
    INDEX 01 00:21:29
  TRACK 19 AUDIO
    TITLE "31:cjc123_5335"
    INDEX 01 00:21:74
  TRACK 20 AUDIO
    TITLE "0:"
    INDEX 01 00:25:39
  TRACK 21 AUDIO
    TITLE "32:cjc123_5336"
    INDEX 01 00:26:05
  TRACK 22 AUDIO
    TITLE "0:"
    INDEX 01 00:28:57
  TRACK 23 AUDIO
    TITLE "28:cjc123_5337"
    INDEX 01 00:29:31
  TRACK 24 AUDIO
    TITLE "0:"
    INDEX 01 00:30:46
  TRACK 25 AUDIO
    TITLE "29:cjc123_5338"
    INDEX 01 00:30:54
  TRACK 26 AUDIO
    TITLE "0:"
    INDEX 01 00:32:23
  TRACK 27 AUDIO
    TITLE "30:cjc123_5339"
    INDEX 01 00:32:33
  TRACK 28 AUDIO
    TITLE "0:"
    INDEX 01 00:33:42
  TRACK 29 AUDIO
    TITLE "31:cjc123_5340"
    INDEX 01 00:34:14
  TRACK 30 AUDIO
    TITLE "0:"
    INDEX 01 00:37:59
  TRACK 31 AUDIO
    TITLE "32:cjc123_5341"
    INDEX 01 00:38:24
  TRACK 32 AUDIO
    TITLE "0:"
    INDEX 01 00:42:08
  TRACK 33 AUDIO
    TITLE "28:cjc123_5342"
    INDEX 01 00:42:63
  TRACK 34 AUDIO
    TITLE "0:"
    INDEX 01 00:44:20
  TRACK 35 AUDIO
    TITLE "29:cjc123_5343"
    INDEX 01 00:44:38
  TRACK 36 AUDIO
    TITLE "0:"
    INDEX 01 00:45:59
  TRACK 37 AUDIO
    TITLE "30:cjc123_5344"
    INDEX 01 00:45:65
  TRACK 38 AUDIO
    TITLE "0:"
    INDEX 01 00:47:13
  TRACK 39 AUDIO
    TITLE "31:cjc123_5345"
    INDEX 01 00:47:66
  TRACK 40 AUDIO
    TITLE "0:"
    INDEX 01 00:53:62
  TRACK 41 AUDIO
    TITLE "32:cjc123_5346"
    INDEX 01 00:54:21
  TRACK 42 AUDIO
    TITLE "0:"
    INDEX 01 00:59:06
  TRACK 43 AUDIO
    TITLE "28:cjc123_5347"
    INDEX 01 00:59:55
  TRACK 44 AUDIO
    TITLE "0:"
    INDEX 01 01:00:64
  TRACK 45 AUDIO
    TITLE "29:cjc123_5348"
    INDEX 01 01:00:72
  TRACK 46 AUDIO
    TITLE "0:"
    INDEX 01 01:02:34
  TRACK 47 AUDIO
    TITLE "30:cjc123_5349"
    INDEX 01 01:02:46
  TRACK 48 AUDIO
    TITLE "0:"
    INDEX 01 01:03:37
  TRACK 49 AUDIO
    TITLE "31:cjc123_5350"
    INDEX 01 01:04:17
  TRACK 50 AUDIO
    TITLE "0:"
    INDEX 01 01:07:74
  TRACK 51 AUDIO
    TITLE "32:cjc123_5351"
    INDEX 01 01:08:35
  TRACK 52 AUDIO
    TITLE "0:"
    INDEX 01 01:12:32
  TRACK 53 AUDIO
    TITLE "28:cjc123_5352"
    INDEX 01 01:13:06
  TRACK 54 AUDIO
    TITLE "0:"
    INDEX 01 01:14:51
  TRACK 55 AUDIO
    TITLE "29:cjc123_5353"
    INDEX 01 01:14:74
  TRACK 56 AUDIO
    TITLE "0:"
    INDEX 01 01:16:11
  TRACK 57 AUDIO
    TITLE "30:cjc123_5354"
    INDEX 01 01:16:24
  TRACK 58 AUDIO
    TITLE "0:"
    INDEX 01 01:18:00
  TRACK 59 AUDIO
    TITLE "31:cjc123_5355"
    INDEX 01 01:18:54
  TRACK 60 AUDIO
    TITLE "0:"
    INDEX 01 01:23:09
  TRACK 61 AUDIO
    TITLE "32:cjc123_5356"
    INDEX 01 01:23:63
  TRACK 62 AUDIO
    TITLE "0:"
    INDEX 01 01:27:30
  TRACK 63 AUDIO
    TITLE "28:cjc123_5357"
    INDEX 01 01:27:63
  TRACK 64 AUDIO
    TITLE "0:"
    INDEX 01 01:29:05
  TRACK 65 AUDIO
    TITLE "29:cjc123_5358"
    INDEX 01 01:29:17
  TRACK 66 AUDIO
    TITLE "0:"
    INDEX 01 01:30:22
  TRACK 67 AUDIO
    TITLE "30:cjc123_5359"
    INDEX 01 01:30:28
  TRACK 68 AUDIO
    TITLE "0:"
    INDEX 01 01:31:43
  TRACK 69 AUDIO
    TITLE "31:cjc123_5360"
    INDEX 01 01:32:19
  TRACK 70 AUDIO
    TITLE "0:"
    INDEX 01 01:36:58
  TRACK 71 AUDIO
    TITLE "32:cjc123_5361"
    INDEX 01 01:37:22
  TRACK 72 AUDIO
    TITLE "0:"
    INDEX 01 01:40:74
  TRACK 73 AUDIO
    TITLE "28:cjc123_5362"
    INDEX 01 01:41:54
  TRACK 74 AUDIO
    TITLE "0:"
    INDEX 01 01:42:61
  TRACK 75 AUDIO
    TITLE "29:cjc123_5363"
    INDEX 01 01:43:07
  TRACK 76 AUDIO
    TITLE "0:"
    INDEX 01 01:44:24
  TRACK 77 AUDIO
    TITLE "30:cjc123_5364"
    INDEX 01 01:44:34
  TRACK 78 AUDIO
    TITLE "0:"
    INDEX 01 01:45:32
  TRACK 79 AUDIO
    TITLE "31:cjc123_5365"
    INDEX 01 01:46:16
  TRACK 80 AUDIO
    TITLE "0:"
    INDEX 01 01:50:25
  TRACK 81 AUDIO
    TITLE "32:cjc123_5366"
    INDEX 01 01:50:54
  TRACK 82 AUDIO
    TITLE "0:"
    INDEX 01 01:54:35
  TRACK 83 AUDIO
    TITLE "28:cjc123_5367"
    INDEX 01 01:55:13
  TRACK 84 AUDIO
    TITLE "0:"
    INDEX 01 01:56:24
  TRACK 85 AUDIO
    TITLE "29:cjc123_5368"
    INDEX 01 01:56:41
  TRACK 86 AUDIO
    TITLE "0:"
    INDEX 01 01:57:55
  TRACK 87 AUDIO
    TITLE "30:cjc123_5369"
    INDEX 01 01:57:58
  TRACK 88 AUDIO
    TITLE "0:"
    INDEX 01 01:59:01
  TRACK 89 AUDIO
    TITLE "31:cjc123_5370"
    INDEX 01 01:59:51
  TRACK 90 AUDIO
    TITLE "0:"
    INDEX 01 02:05:62
  TRACK 91 AUDIO
    TITLE "32:cjc123_5371"
    INDEX 01 02:06:26
  TRACK 92 AUDIO
    TITLE "0:"
    INDEX 01 02:11:57
  TRACK 93 AUDIO
    TITLE "28:cjc123_5372"
    INDEX 01 02:12:27
  TRACK 94 AUDIO
    TITLE "0:"
    INDEX 01 02:13:57
  TRACK 95 AUDIO
    TITLE "29:cjc123_5373"
    INDEX 01 02:13:63
  TRACK 96 AUDIO
    TITLE "0:"
    INDEX 01 02:15:03
  TRACK 97 AUDIO
    TITLE "30:cjc123_5374"
    INDEX 01 02:15:09
  TRACK 98 AUDIO
    TITLE "0:"
    INDEX 01 02:16:26
  TRACK 99 AUDIO
    TITLE "31:cjc123_5375"
    INDEX 01 02:17:08
  TRACK 100 AUDIO
    TITLE "0:"
    INDEX 01 02:22:29
  TRACK 101 AUDIO
    TITLE "32:cjc123_5376"
    INDEX 01 02:23:13
  TRACK 102 AUDIO
    TITLE "0:"
    INDEX 01 02:28:57
  TRACK 103 AUDIO
    TITLE "28:cjc123_5377"
    INDEX 01 02:28:73
  TRACK 104 AUDIO
    TITLE "0:"
    INDEX 01 02:30:27
  TRACK 105 AUDIO
    TITLE "29:cjc123_5378"
    INDEX 01 02:30:34
  TRACK 106 AUDIO
    TITLE "0:"
    INDEX 01 02:31:65
  TRACK 107 AUDIO
    TITLE "30:cjc123_5379"
    INDEX 01 02:32:00
  TRACK 108 AUDIO
    TITLE "0:"
    INDEX 01 02:33:25
  TRACK 109 AUDIO
    TITLE "31:cjc123_5380"
    INDEX 01 02:34:01
  TRACK 110 AUDIO
    TITLE "0:"
    INDEX 01 02:40:56
  TRACK 111 AUDIO
    TITLE "32:cjc123_5381"
    INDEX 01 02:41:36
  TRACK 112 AUDIO
    TITLE "0:"
    INDEX 01 02:48:23
  TRACK 113 AUDIO
    TITLE "28:cjc123_5382"
    INDEX 01 02:48:44
  TRACK 114 AUDIO
    TITLE "0:"
    INDEX 01 02:49:73
  TRACK 115 AUDIO
    TITLE "29:cjc123_5383"
    INDEX 01 02:50:08
  TRACK 116 AUDIO
    TITLE "0:"
    INDEX 01 02:51:19
  TRACK 117 AUDIO
    TITLE "30:cjc123_5384"
    INDEX 01 02:51:29
  TRACK 118 AUDIO
    TITLE "0:"
    INDEX 01 02:52:58
  TRACK 119 AUDIO
    TITLE "31:cjc123_5385"
    INDEX 01 02:53:32
  TRACK 120 AUDIO
    TITLE "0:"
    INDEX 01 02:59:32
  TRACK 121 AUDIO
    TITLE "32:cjc123_5386"
    INDEX 01 03:00:10
  TRACK 122 AUDIO
    TITLE "0:"
    INDEX 01 03:06:56
  TRACK 123 AUDIO
    TITLE "28:cjc123_5387"
    INDEX 01 03:07:18
  TRACK 124 AUDIO
    TITLE "0:"
    INDEX 01 03:08:33
  TRACK 125 AUDIO
    TITLE "29:cjc123_5388"
    INDEX 01 03:08:57
  TRACK 126 AUDIO
    TITLE "0:"
    INDEX 01 03:09:62
  TRACK 127 AUDIO
    TITLE "30:cjc123_5389"
    INDEX 01 03:09:74
  TRACK 128 AUDIO
    TITLE "0:"
    INDEX 01 03:11:06
  TRACK 129 AUDIO
    TITLE "31:cjc123_5390"
    INDEX 01 03:11:59
  TRACK 130 AUDIO
    TITLE "0:"
    INDEX 01 03:15:53
  TRACK 131 AUDIO
    TITLE "32:cjc123_5391"
    INDEX 01 03:16:23
  TRACK 132 AUDIO
    TITLE "0:"
    INDEX 01 03:21:22
  TRACK 133 AUDIO
    TITLE "28:cjc123_5392"
    INDEX 01 03:22:00
  TRACK 134 AUDIO
    TITLE "0:"
    INDEX 01 03:23:15
  TRACK 135 AUDIO
    TITLE "29:cjc123_5393"
    INDEX 01 03:23:33
  TRACK 136 AUDIO
    TITLE "0:"
    INDEX 01 03:24:36
  TRACK 137 AUDIO
    TITLE "30:cjc123_5394"
    INDEX 01 03:24:46
  TRACK 138 AUDIO
    TITLE "0:"
    INDEX 01 03:25:57
  TRACK 139 AUDIO
    TITLE "31:cjc123_5395"
    INDEX 01 03:26:43
  TRACK 140 AUDIO
    TITLE "0:"
    INDEX 01 03:32:32
  TRACK 141 AUDIO
    TITLE "32:cjc123_5396"
    INDEX 01 03:32:73
  TRACK 142 AUDIO
    TITLE "0:"
    INDEX 01 03:37:29
  TRACK 143 AUDIO
    TITLE "28:cjc123_5397"
    INDEX 01 03:38:09
  TRACK 144 AUDIO
    TITLE "0:"
    INDEX 01 03:39:34
  TRACK 145 AUDIO
    TITLE "29:cjc123_5398"
    INDEX 01 03:39:43
  TRACK 146 AUDIO
    TITLE "0:"
    INDEX 01 03:40:62
  TRACK 147 AUDIO
    TITLE "30:cjc123_5399"
    INDEX 01 03:40:70
  TRACK 148 AUDIO
    TITLE "0:"
    INDEX 01 03:42:18
  TRACK 149 AUDIO
    TITLE "31:cjc123_5400"
    INDEX 01 03:42:67
  TRACK 150 AUDIO
    TITLE "0:"
    INDEX 01 03:46:71
  TRACK 151 AUDIO
    TITLE "32:cjc123_5401"
    INDEX 01 03:47:27
  TRACK 152 AUDIO
    TITLE "0:"
    INDEX 01 03:51:11
